<?xml version="1.0" encoding="UTF-8" standalone="no"?>
<!-- Generator: Adobe Illustrator 14.0.0, SVG Export Plug-In . SVG Version: 6.00 Build 43363)  -->

<svg
   xmlns:dc="http://purl.org/dc/elements/1.1/"
   xmlns:cc="http://creativecommons.org/ns#"
   xmlns:rdf="http://www.w3.org/1999/02/22-rdf-syntax-ns#"
   xmlns:svg="http://www.w3.org/2000/svg"
   xmlns="http://www.w3.org/2000/svg"
   xmlns:sodipodi="http://sodipodi.sourceforge.net/DTD/sodipodi-0.dtd"
   xmlns:inkscape="http://www.inkscape.org/namespaces/inkscape"
   sodipodi:docname="scoutbookplus.svg"
   inkscape:version="0.91 r13725"
   xml:space="preserve"
   viewBox="0 0 256 256"
   height="256"
   width="256"
   y="0px"
   x="0px"
   id="Layer_1"
   version="1.1"><sodipodi:namedview
     inkscape:current-layer="Layer_1"
     inkscape:window-maximized="0"
     inkscape:window-y="0"
     inkscape:window-x="0"
     inkscape:cy="95.191359"
     inkscape:cx="-32.681722"
     inkscape:zoom="2.512"
     fit-margin-bottom="0"
     fit-margin-right="0"
     fit-margin-left="0"
     fit-margin-top="0"
     showgrid="false"
     id="namedview4149"
     inkscape:window-height="1038"
     inkscape:window-width="2007"
     inkscape:pageshadow="2"
     inkscape:pageopacity="0"
     guidetolerance="10"
     gridtolerance="10"
     objecttolerance="10"
     borderopacity="1"
     bordercolor="#666666"
     pagecolor="#ffffff" /><metadata
     id="metadata4153"><rdf:RDF><cc:Work
         rdf:about=""><dc:format>image/svg+xml</dc:format><dc:type
           rdf:resource="http://purl.org/dc/dcmitype/StillImage" /><dc:title></dc:title></cc:Work></rdf:RDF></metadata><defs
     id="defs4151"><clipPath
       clipPathUnits="userSpaceOnUse"
       id="clipPath6391"><path
         style="fill:#003f87;fill-opacity:0.94117647"
         d="m 88.2851,14.704001 c -1.219,5.734 -4.356,13.907 -7.995,23.354 -2.659,6.922 -5.685,14.764 -8.405,22.899 -2.61,7.817 -3.676,13.649 -3.676,19.077 0,1.74 0.19,3.431 0.386,5.158 -10.059,-6.91 -29.883,-16.369 -51.515,-3.712 C 5.0730998,88.488001 -1.3719002,100.544 0.24609979,112.944 1.6980998,123.946 9.2270998,132.621 19.9051,135.561 l 3.161,0.858 0.791,-3.186 c 0.202,-0.784 4.956,-19.236 22.005,-18.894 13.716,0.294 22.685,13.625 25.111,17.717 -1.158,2.132 -2.114,5.072 -2.114,8.43 0,3.627 1.231,7.744 4.368,11.86 -1.244,1.691 -3.296,3.773 -5.698,3.97 -3.412,0.294 -6.861,-3.308 -9.159,-6.371 l -1.917,-2.573 -2.561,1.937 c -5.244,3.896 -13.876,14.408 -8.993,26.22 1.954,4.729 6.145,7.866 12.118,9.042 6.175,1.226 13.968,0.123 19.5,-2.401 1.066,6.249 4.099,16.811 12.81,25.901 l 2.31,2.427 2.316,-2.451 c 8.687,-9.091 11.694,-19.677 12.748,-25.926 5.551,2.524 13.343,3.603 19.519,2.353 5.967,-1.201 10.145,-4.313 12.081,-9.042 4.852,-11.836 -3.799,-22.349 -9.055,-26.221 l -2.562,-1.911 -1.911,2.549 c -2.278,3.087 -5.734,6.689 -9.152,6.42 -2.39,-0.196 -4.447,-2.279 -5.71,-3.97 3.112,-4.117 4.35,-8.209 4.35,-11.812 0,-3.382 -0.979,-6.347 -2.132,-8.479 2.414,-4.117 11.346,-17.472 25.068,-17.766 17.043,-0.393 21.847,18.035 22.03,18.819 l 0.809,3.21 3.161,-0.882 c 10.684,-2.965 18.183,-11.64 19.604,-22.68 1.593,-12.387 -4.876,-24.418999 -16.908,-31.426999 -21.675,-12.595 -41.486,-3.087 -51.521,3.86 0.184,-1.654 0.38,-3.321 0.38,-5.011 0,-5.489 -1.078,-11.419 -3.7,-19.224 -2.744,-8.124 -5.783,-15.953 -8.448,-22.863 -3.669,-9.446 -6.83,-17.606 -8.056,-23.341 L 91.3991,1.0986328e-6 88.2851,14.704001"
         id="path6393"
         inkscape:connector-curvature="0"
         clip-path="none" /></clipPath><clipPath
       clipPathUnits="userSpaceOnUse"
       id="clipPath6395"><path
         style="fill:#003f87;fill-opacity:0.94117647"
         d="m 88.2851,14.704001 c -1.219,5.734 -4.356,13.907 -7.995,23.354 -2.659,6.922 -5.685,14.764 -8.405,22.899 -2.61,7.817 -3.676,13.649 -3.676,19.077 0,1.74 0.19,3.431 0.386,5.158 -10.059,-6.91 -29.883,-16.369 -51.515,-3.712 C 5.0730998,88.488001 -1.3719002,100.544 0.24609979,112.944 1.6980998,123.946 9.2270998,132.621 19.9051,135.561 l 3.161,0.858 0.791,-3.186 c 0.202,-0.784 4.956,-19.236 22.005,-18.894 13.716,0.294 22.685,13.625 25.111,17.717 -1.158,2.132 -2.114,5.072 -2.114,8.43 0,3.627 1.231,7.744 4.368,11.86 -1.244,1.691 -3.296,3.773 -5.698,3.97 -3.412,0.294 -6.861,-3.308 -9.159,-6.371 l -1.917,-2.573 -2.561,1.937 c -5.244,3.896 -13.876,14.408 -8.993,26.22 1.954,4.729 6.145,7.866 12.118,9.042 6.175,1.226 13.968,0.123 19.5,-2.401 1.066,6.249 4.099,16.811 12.81,25.901 l 2.31,2.427 2.316,-2.451 c 8.687,-9.091 11.694,-19.677 12.748,-25.926 5.551,2.524 13.343,3.603 19.519,2.353 5.967,-1.201 10.145,-4.313 12.081,-9.042 4.852,-11.836 -3.799,-22.349 -9.055,-26.221 l -2.562,-1.911 -1.911,2.549 c -2.278,3.087 -5.734,6.689 -9.152,6.42 -2.39,-0.196 -4.447,-2.279 -5.71,-3.97 3.112,-4.117 4.35,-8.209 4.35,-11.812 0,-3.382 -0.979,-6.347 -2.132,-8.479 2.414,-4.117 11.346,-17.472 25.068,-17.766 17.043,-0.393 21.847,18.035 22.03,18.819 l 0.809,3.21 3.161,-0.882 c 10.684,-2.965 18.183,-11.64 19.604,-22.68 1.593,-12.387 -4.876,-24.418999 -16.908,-31.426999 -21.675,-12.595 -41.486,-3.087 -51.521,3.86 0.184,-1.654 0.38,-3.321 0.38,-5.011 0,-5.489 -1.078,-11.419 -3.7,-19.224 -2.744,-8.124 -5.783,-15.953 -8.448,-22.863 -3.669,-9.446 -6.83,-17.606 -8.056,-23.341 L 91.3991,1.0986328e-6 88.2851,14.704001"
         id="path6397"
         inkscape:connector-curvature="0"
         clip-path="none" /></clipPath><clipPath
       clipPathUnits="userSpaceOnUse"
       id="clipPath6399"><path
         style="fill:#003f87;fill-opacity:0.94117647"
         d="m 88.2851,14.704001 c -1.219,5.734 -4.356,13.907 -7.995,23.354 -2.659,6.922 -5.685,14.764 -8.405,22.899 -2.61,7.817 -3.676,13.649 -3.676,19.077 0,1.74 0.19,3.431 0.386,5.158 -10.059,-6.91 -29.883,-16.369 -51.515,-3.712 C 5.0730998,88.488001 -1.3719002,100.544 0.24609979,112.944 1.6980998,123.946 9.2270998,132.621 19.9051,135.561 l 3.161,0.858 0.791,-3.186 c 0.202,-0.784 4.956,-19.236 22.005,-18.894 13.716,0.294 22.685,13.625 25.111,17.717 -1.158,2.132 -2.114,5.072 -2.114,8.43 0,3.627 1.231,7.744 4.368,11.86 -1.244,1.691 -3.296,3.773 -5.698,3.97 -3.412,0.294 -6.861,-3.308 -9.159,-6.371 l -1.917,-2.573 -2.561,1.937 c -5.244,3.896 -13.876,14.408 -8.993,26.22 1.954,4.729 6.145,7.866 12.118,9.042 6.175,1.226 13.968,0.123 19.5,-2.401 1.066,6.249 4.099,16.811 12.81,25.901 l 2.31,2.427 2.316,-2.451 c 8.687,-9.091 11.694,-19.677 12.748,-25.926 5.551,2.524 13.343,3.603 19.519,2.353 5.967,-1.201 10.145,-4.313 12.081,-9.042 4.852,-11.836 -3.799,-22.349 -9.055,-26.221 l -2.562,-1.911 -1.911,2.549 c -2.278,3.087 -5.734,6.689 -9.152,6.42 -2.39,-0.196 -4.447,-2.279 -5.71,-3.97 3.112,-4.117 4.35,-8.209 4.35,-11.812 0,-3.382 -0.979,-6.347 -2.132,-8.479 2.414,-4.117 11.346,-17.472 25.068,-17.766 17.043,-0.393 21.847,18.035 22.03,18.819 l 0.809,3.21 3.161,-0.882 c 10.684,-2.965 18.183,-11.64 19.604,-22.68 1.593,-12.387 -4.876,-24.418999 -16.908,-31.426999 -21.675,-12.595 -41.486,-3.087 -51.521,3.86 0.184,-1.654 0.38,-3.321 0.38,-5.011 0,-5.489 -1.078,-11.419 -3.7,-19.224 -2.744,-8.124 -5.783,-15.953 -8.448,-22.863 -3.669,-9.446 -6.83,-17.606 -8.056,-23.341 L 91.3991,1.0986328e-6 88.2851,14.704001"
         id="path6401"
         inkscape:connector-curvature="0"
         clip-path="none" /></clipPath><clipPath
       clipPathUnits="userSpaceOnUse"
       id="clipPath8321"><path
         clip-path="url(#clipPath6399)"
         inkscape:connector-curvature="0"
         id="path8323"
         d="m 88.2851,14.704 c -1.219,5.734 -4.356,13.907 -7.995,23.354 -2.659,6.922 -5.685,14.764 -8.405,22.899 -2.61,7.817 -3.676,13.649 -3.676,19.077 0,1.74 0.19,3.431 0.386,5.158 C 58.5361,78.282 38.7121,68.823 17.0801,81.48 5.0730998,88.488 -1.3719002,100.544 0.24609979,112.944 1.6980998,123.946 9.2270998,132.621 19.9051,135.561 l 3.161,0.858 0.791,-3.186 c 0.202,-0.784 4.956,-19.236 22.005,-18.894 13.716,0.294 22.685,13.625 25.111,17.717 -1.158,2.132 -2.114,5.072 -2.114,8.43 0,3.627 1.231,7.744 4.368,11.86 -1.244,1.691 -3.296,3.773 -5.698,3.97 -3.412,0.294 -6.861,-3.308 -9.159,-6.371 l -1.917,-2.573 -2.561,1.937 c -5.244,3.896 -13.876,14.408 -8.993,26.22 1.954,4.729 6.145,7.866 12.118,9.042 6.175,1.226 13.968,0.123 19.5,-2.401 1.066,6.249 4.099,16.811 12.81,25.901 l 2.31,2.427 2.316,-2.451 c 8.687,-9.091 11.694,-19.677 12.748,-25.926 5.551,2.524 13.343,3.603 19.519,2.353 5.967,-1.201 10.145,-4.313 12.081,-9.042 4.852,-11.836 -3.799,-22.349 -9.055,-26.221 l -2.562,-1.911 -1.911,2.549 c -2.278,3.087 -5.734,6.689 -9.152,6.42 -2.39,-0.196 -4.447,-2.279 -5.71,-3.97 3.112,-4.117 4.35,-8.209 4.35,-11.812 0,-3.382 -0.979,-6.347 -2.132,-8.479 2.414,-4.117 11.346,-17.472 25.068,-17.766 17.043,-0.393 21.847,18.035 22.03,18.819 l 0.809,3.21 3.161,-0.882 c 10.684,-2.965 18.183,-11.64 19.604,-22.68 1.593,-12.387 -4.876,-24.419 -16.908,-31.427 -21.675,-12.595 -41.486,-3.087 -51.521,3.86 0.184,-1.654 0.38,-3.321 0.38,-5.011 0,-5.489 -1.078,-11.419 -3.7,-19.224 -2.744,-8.124 -5.783,-15.953 -8.448,-22.863 -3.669,-9.446 -6.83,-17.606 -8.056,-23.341 L 91.3991,0 88.2851,14.704"
         style="fill:#ce1126;fill-opacity:1" /></clipPath><clipPath
       clipPathUnits="userSpaceOnUse"
       id="clipPath8325"><path
         clip-path="url(#clipPath6399)"
         inkscape:connector-curvature="0"
         id="path8327"
         d="m 88.2851,14.704 c -1.219,5.734 -4.356,13.907 -7.995,23.354 -2.659,6.922 -5.685,14.764 -8.405,22.899 -2.61,7.817 -3.676,13.649 -3.676,19.077 0,1.74 0.19,3.431 0.386,5.158 C 58.5361,78.282 38.7121,68.823 17.0801,81.48 5.0730998,88.488 -1.3719002,100.544 0.24609979,112.944 1.6980998,123.946 9.2270998,132.621 19.9051,135.561 l 3.161,0.858 0.791,-3.186 c 0.202,-0.784 4.956,-19.236 22.005,-18.894 13.716,0.294 22.685,13.625 25.111,17.717 -1.158,2.132 -2.114,5.072 -2.114,8.43 0,3.627 1.231,7.744 4.368,11.86 -1.244,1.691 -3.296,3.773 -5.698,3.97 -3.412,0.294 -6.861,-3.308 -9.159,-6.371 l -1.917,-2.573 -2.561,1.937 c -5.244,3.896 -13.876,14.408 -8.993,26.22 1.954,4.729 6.145,7.866 12.118,9.042 6.175,1.226 13.968,0.123 19.5,-2.401 1.066,6.249 4.099,16.811 12.81,25.901 l 2.31,2.427 2.316,-2.451 c 8.687,-9.091 11.694,-19.677 12.748,-25.926 5.551,2.524 13.343,3.603 19.519,2.353 5.967,-1.201 10.145,-4.313 12.081,-9.042 4.852,-11.836 -3.799,-22.349 -9.055,-26.221 l -2.562,-1.911 -1.911,2.549 c -2.278,3.087 -5.734,6.689 -9.152,6.42 -2.39,-0.196 -4.447,-2.279 -5.71,-3.97 3.112,-4.117 4.35,-8.209 4.35,-11.812 0,-3.382 -0.979,-6.347 -2.132,-8.479 2.414,-4.117 11.346,-17.472 25.068,-17.766 17.043,-0.393 21.847,18.035 22.03,18.819 l 0.809,3.21 3.161,-0.882 c 10.684,-2.965 18.183,-11.64 19.604,-22.68 1.593,-12.387 -4.876,-24.419 -16.908,-31.427 -21.675,-12.595 -41.486,-3.087 -51.521,3.86 0.184,-1.654 0.38,-3.321 0.38,-5.011 0,-5.489 -1.078,-11.419 -3.7,-19.224 -2.744,-8.124 -5.783,-15.953 -8.448,-22.863 -3.669,-9.446 -6.83,-17.606 -8.056,-23.341 L 91.3991,0 88.2851,14.704"
         style="fill:#ce1126;fill-opacity:1"
         transform="matrix(1.3333333,0,0,1.3333333,-30.506607,-35.083001)" /></clipPath><clipPath
       clipPathUnits="userSpaceOnUse"
       id="clipPath8333"><path
         clip-path="url(#clipPath6399)"
         inkscape:connector-curvature="0"
         id="path8335"
         d="m 88.2851,14.704 c -1.219,5.734 -4.356,13.907 -7.995,23.354 -2.659,6.922 -5.685,14.764 -8.405,22.899 -2.61,7.817 -3.676,13.649 -3.676,19.077 0,1.74 0.19,3.431 0.386,5.158 C 58.5361,78.282 38.7121,68.823 17.0801,81.48 5.0730998,88.488 -1.3719002,100.544 0.24609979,112.944 1.6980998,123.946 9.2270998,132.621 19.9051,135.561 l 3.161,0.858 0.791,-3.186 c 0.202,-0.784 4.956,-19.236 22.005,-18.894 13.716,0.294 22.685,13.625 25.111,17.717 -1.158,2.132 -2.114,5.072 -2.114,8.43 0,3.627 1.231,7.744 4.368,11.86 -1.244,1.691 -3.296,3.773 -5.698,3.97 -3.412,0.294 -6.861,-3.308 -9.159,-6.371 l -1.917,-2.573 -2.561,1.937 c -5.244,3.896 -13.876,14.408 -8.993,26.22 1.954,4.729 6.145,7.866 12.118,9.042 6.175,1.226 13.968,0.123 19.5,-2.401 1.066,6.249 4.099,16.811 12.81,25.901 l 2.31,2.427 2.316,-2.451 c 8.687,-9.091 11.694,-19.677 12.748,-25.926 5.551,2.524 13.343,3.603 19.519,2.353 5.967,-1.201 10.145,-4.313 12.081,-9.042 4.852,-11.836 -3.799,-22.349 -9.055,-26.221 l -2.562,-1.911 -1.911,2.549 c -2.278,3.087 -5.734,6.689 -9.152,6.42 -2.39,-0.196 -4.447,-2.279 -5.71,-3.97 3.112,-4.117 4.35,-8.209 4.35,-11.812 0,-3.382 -0.979,-6.347 -2.132,-8.479 2.414,-4.117 11.346,-17.472 25.068,-17.766 17.043,-0.393 21.847,18.035 22.03,18.819 l 0.809,3.21 3.161,-0.882 c 10.684,-2.965 18.183,-11.64 19.604,-22.68 1.593,-12.387 -4.876,-24.419 -16.908,-31.427 -21.675,-12.595 -41.486,-3.087 -51.521,3.86 0.184,-1.654 0.38,-3.321 0.38,-5.011 0,-5.489 -1.078,-11.419 -3.7,-19.224 -2.744,-8.124 -5.783,-15.953 -8.448,-22.863 -3.669,-9.446 -6.83,-17.606 -8.056,-23.341 L 91.3991,0 88.2851,14.704"
         style="fill:#ce1126;fill-opacity:1" /></clipPath><filter
       style="color-interpolation-filters:sRGB"
       inkscape:label="Drop Shadow"
       id="filter8495"><feFlood
         flood-opacity="0.498039"
         flood-color="rgb(0,0,0)"
         result="flood"
         id="feFlood8497" /><feComposite
         in="flood"
         in2="SourceGraphic"
         operator="in"
         result="composite1"
         id="feComposite8499" /><feGaussianBlur
         in="composite1"
         stdDeviation="2"
         result="blur"
         id="feGaussianBlur8501" /><feOffset
         dx="0"
         dy="0"
         result="offset"
         id="feOffset8503" /><feComposite
         in="SourceGraphic"
         in2="offset"
         operator="over"
         result="composite2"
         id="feComposite8505" /></filter><filter
       style="color-interpolation-filters:sRGB;"
       inkscape:label="Drop Shadow"
       id="filter4178"><feFlood
         flood-opacity="0.498039"
         flood-color="rgb(0,0,0)"
         result="flood"
         id="feFlood4180" /><feComposite
         in="flood"
         in2="SourceGraphic"
         operator="in"
         result="composite1"
         id="feComposite4182" /><feGaussianBlur
         in="composite1"
         stdDeviation="2"
         result="blur"
         id="feGaussianBlur4184" /><feOffset
         dx="0"
         dy="0"
         result="offset"
         id="feOffset4186" /><feComposite
         in="SourceGraphic"
         in2="offset"
         operator="over"
         result="composite2"
         id="feComposite4188" /></filter><filter
       style="color-interpolation-filters:sRGB;"
       inkscape:label="Drop Shadow"
       id="filter4191"><feFlood
         flood-opacity="1"
         flood-color="rgb(0,0,0)"
         result="flood"
         id="feFlood4193" /><feComposite
         in="flood"
         in2="SourceGraphic"
         operator="in"
         result="composite1"
         id="feComposite4195" /><feGaussianBlur
         in="composite1"
         stdDeviation="2"
         result="blur"
         id="feGaussianBlur4197" /><feOffset
         dx="0"
         dy="0"
         result="offset"
         id="feOffset4199" /><feComposite
         in="SourceGraphic"
         in2="offset"
         operator="over"
         result="composite2"
         id="feComposite4201" /></filter></defs><g
     inkscape:groupmode="layer"
     id="layer1"
     inkscape:label="Layer 1"
     transform="translate(0,45.501999)" /><path
     style="fill:#c5b68f;fill-opacity:1;filter:url(#filter4191)"
     d="m 88.2851,14.704 c -1.219,5.734 -4.356,13.907 -7.995,23.354 -2.659,6.922 -5.685,14.764 -8.405,22.899 -2.61,7.817 -3.676,13.649 -3.676,19.077 0,1.74 0.19,3.431 0.386,5.158 C 58.5361,78.282 38.7121,68.823 17.0801,81.48 5.0730998,88.488 -1.3719002,100.544 0.24609979,112.944 1.6980998,123.946 9.2270998,132.621 19.9051,135.561 l 3.161,0.858 0.791,-3.186 c 0.202,-0.784 4.956,-19.236 22.005,-18.894 13.716,0.294 22.685,13.625 25.111,17.717 -1.158,2.132 -2.114,5.072 -2.114,8.43 0,3.627 1.231,7.744 4.368,11.86 -1.244,1.691 -3.296,3.773 -5.698,3.97 -3.412,0.294 -6.861,-3.308 -9.159,-6.371 l -1.917,-2.573 -2.561,1.937 c -5.244,3.896 -13.876,14.408 -8.993,26.22 1.954,4.729 6.145,7.866 12.118,9.042 6.175,1.226 13.968,0.123 19.5,-2.401 1.066,6.249 4.099,16.811 12.81,25.901 l 2.31,2.427 2.316,-2.451 c 8.687,-9.091 11.694,-19.677 12.748,-25.926 5.551,2.524 13.343,3.603 19.519,2.353 5.967,-1.201 10.145,-4.313 12.081,-9.042 4.852,-11.836 -3.799,-22.349 -9.055,-26.221 l -2.562,-1.911 -1.911,2.549 c -2.278,3.087 -5.734,6.689 -9.152,6.42 -2.39,-0.196 -4.447,-2.279 -5.71,-3.97 3.112,-4.117 4.35,-8.209 4.35,-11.812 0,-3.382 -0.979,-6.347 -2.132,-8.479 2.414,-4.117 11.346,-17.472 25.068,-17.766 17.043,-0.393 21.847,18.035 22.03,18.819 l 0.809,3.21 3.161,-0.882 c 10.684,-2.965 18.183,-11.64 19.604,-22.68 1.593,-12.387 -4.876,-24.419 -16.908,-31.427 -21.675,-12.595 -41.486,-3.087 -51.521,3.86 0.184,-1.654 0.38,-3.321 0.38,-5.011 0,-5.489 -1.078,-11.419 -3.7,-19.224 -2.744,-8.124 -5.783,-15.953 -8.448,-22.863 -3.669,-9.446 -6.83,-17.606 -8.056,-23.341 L 91.3991,0 88.2851,14.704"
     id="path4143"
     inkscape:connector-curvature="0"
     clip-path="none"
     transform="translate(36.480179,22.751)" /><path
     style="fill:#e00000;fill-opacity:0"
     d="m 88.2851,14.704 c -1.219,5.734 -4.356,13.907 -7.995,23.354 -2.659,6.922 -5.685,14.764 -8.405,22.899 -2.61,7.817 -3.676,13.649 -3.676,19.077 0,1.74 0.19,3.431 0.386,5.158 C 58.5361,78.282 38.7121,68.823 17.0801,81.48 5.0730998,88.488 -1.3719002,100.544 0.24609979,112.944 1.6980998,123.946 9.2270998,132.621 19.9051,135.561 l 3.161,0.858 0.791,-3.186 c 0.202,-0.784 4.956,-19.236 22.005,-18.894 13.716,0.294 22.685,13.625 25.111,17.717 -1.158,2.132 -2.114,5.072 -2.114,8.43 0,3.627 1.231,7.744 4.368,11.86 -1.244,1.691 -3.296,3.773 -5.698,3.97 -3.412,0.294 -6.861,-3.308 -9.159,-6.371 l -1.917,-2.573 -2.561,1.937 c -5.244,3.896 -13.876,14.408 -8.993,26.22 1.954,4.729 6.145,7.866 12.118,9.042 6.175,1.226 13.968,0.123 19.5,-2.401 1.066,6.249 4.099,16.811 12.81,25.901 l 2.31,2.427 2.316,-2.451 c 8.687,-9.091 11.694,-19.677 12.748,-25.926 5.551,2.524 13.343,3.603 19.519,2.353 5.967,-1.201 10.145,-4.313 12.081,-9.042 4.852,-11.836 -3.799,-22.349 -9.055,-26.221 l -2.562,-1.911 -1.911,2.549 c -2.278,3.087 -5.734,6.689 -9.152,6.42 -2.39,-0.196 -4.447,-2.279 -5.71,-3.97 3.112,-4.117 4.35,-8.209 4.35,-11.812 0,-3.382 -0.979,-6.347 -2.132,-8.479 2.414,-4.117 11.346,-17.472 25.068,-17.766 17.043,-0.393 21.847,18.035 22.03,18.819 l 0.809,3.21 3.161,-0.882 c 10.684,-2.965 18.183,-11.64 19.604,-22.68 1.593,-12.387 -4.876,-24.419 -16.908,-31.427 -21.675,-12.595 -41.486,-3.087 -51.521,3.86 0.184,-1.654 0.38,-3.321 0.38,-5.011 0,-5.489 -1.078,-11.419 -3.7,-19.224 -2.744,-8.124 -5.783,-15.953 -8.448,-22.863 -3.669,-9.446 -6.83,-17.606 -8.056,-23.341 L 91.3991,0 88.2851,14.704"
     id="path8331"
     inkscape:connector-curvature="0"
     clip-path="url(#clipPath6399)"
     transform="translate(36.480179,22.751)" /><path
     style="opacity:0.22000002;fill:#000000;fill-opacity:1;fill-rule:evenodd;stroke:none;stroke-width:1;stroke-miterlimit:4;stroke-dasharray:none;stroke-opacity:1"
     d="m 82.519531,78.248047 0,18 -18,0 0,18.000003 0.298828,0 0,0.29883 0.298829,0 0,0.29882 0.298828,0 0,0.29883 0.296875,0 0,0.29883 0.298828,0 0,0.29883 0.298828,0 0,0.29883 0.298828,0 0,0.29687 0.298828,0 0,0.29883 0.298828,0 0,0.29883 0.298828,0 0,0.29883 0.296875,0 0,0.29882 0.298828,0 0,0.29883 0.298829,0 0,0.29688 0.298828,0 0,0.29882 0.298828,0 0,0.29883 0.298828,0 0,0.29883 0.296875,0 0,0.29883 0.298828,0 0,0.29883 0.298828,0 0,0.29687 0.298828,0 0,0.29883 0.298828,0 0,0.29883 0.298829,0 0,0.29883 0.296875,0 0,0.29882 0.298828,0 0,0.29883 0.298828,0 0,0.29688 0.298828,0 0,0.29883 0.298828,0 0,0.29882 0.298828,0 0,0.29883 0.296875,0 0,0.29883 0.298828,0 0,0.29883 0.298829,0 0,0.29687 0.298828,0 0,0.29883 0.298828,0 0,0.29883 0.298828,0 0,0.29883 0.296875,0 0,0.29883 0.298828,0 0,0.29882 0.298828,0 0,0.29688 0.298828,0 0,0.29883 0.298828,0 0,0.29882 0.298829,0 0,0.29883 0.296874,0 0,0.29883 0.298829,0 0,0.29883 0.298828,0 0,0.29687 0.298828,0 0,0.29883 0.298828,0 0,0.29883 0.298828,0 0,0.29883 0.296875,0 0,0.29883 0.298828,0 0,0.29882 0.298828,0 0,0.29688 0.298828,0 0,0.29883 0.298829,0 0,0.29883 0.298828,0 0,0.29882 0.296875,0 0,0.29883 0.298828,0 0,0.29883 0.298828,0 0,0.29688 0.298828,0 0,0.29882 0.298828,0 0,0.29883 0.298828,0 0,0.29883 0.296875,0 0,0.29883 0.298829,0 0,0.29883 0.08984,0 0,0.0879 0.208985,0 0,0.20898 0.08984,0 0,0.0898 0.208985,0 0,0.20898 0.08984,0 0,0.0898 0.208984,0 0,0.20899 0.08984,0 0,0.0898 0.208984,0 0,0.20899 0.08789,0 0,0.0898 0.208984,0 0,0.20898 0.08984,0 0,0.0898 0.208984,0 0,0.20898 0.08984,0 0,0.0899 0.208984,0 0,0.20703 0.08984,0 0,0.0898 0.208984,0 0,0.20899 0.08984,0 0,0.0898 0.208985,0 0,0.20898 0.08984,0 0,0.0899 0.208985,0 0,0.20898 0.08984,0 0,0.0898 0.207032,0 0,0.20898 0.08984,0 0,0.0898 0.208985,0 0,0.20899 0.08984,0 0,0.0898 0.208985,0 0,0.20899 0.08984,0 0,0.0879 0.208984,0 0,0.20898 0.08984,0 0,0.0898 0.208984,0 0,0.20899 0.08984,0 0,0.0898 0.208984,0 0,0.20899 0.08984,0 0,0.0898 0.208984,0 0,0.20899 0.08789,0 0,0.0898 0.208984,0 0,0.20898 0.08984,0 0,0.0899 0.208984,0 0,0.20898 0.08984,0 0,0.0879 0.208985,0 0,0.20899 0.08984,0 0,0.0898 0.208985,0 0,0.20898 0.08984,0 0,0.0899 0.208985,0 0,0.20898 0.08984,0 0,0.0898 0.208984,0 0,0.20898 0.08789,0 0,0.0898 0.208984,0 0,0.20899 0.08984,0 0,0.0898 0.208984,0 0,0.20899 0.08984,0 0,0.0879 0.208984,0 0,0.20898 0.08984,0 0,0.0899 0.208984,0 0,0.20898 0.08984,0 0,0.0898 0.208984,0 0,0.20899 0.08984,0 0,0.0898 0.208985,0 0,0.20899 0.08789,0 0,0.0898 0.208985,0 0,0.20898 0.08984,0 0,0.0899 0.208985,0 0,0.20898 0.08984,0 0,0.0879 0.208984,0 0,0.20899 0.08984,0 0,0.0898 0.208984,0 0,0.20899 0.08984,0 0,0.0898 0.208984,0 0,0.20898 0.08984,0 0,0.0898 0.208984,0 0,0.20898 0.08789,0 0,0.0899 0.208984,0 0,0.20898 0.08984,0 0,0.0898 0.208984,0 0,0.20899 0.08984,0 0,0.0879 0.208985,0 0,0.20898 0.08984,0 0,0.0899 0.208985,0 0,0.20898 0.08984,0 0,0.0898 0.208985,0 0,0.20899 0.08984,0 0,0.0898 0.208984,0 0,0.20899 0.08789,0 0,0.0898 0.208985,0 0,0.20899 0.08984,0 0,0.0898 0.208984,0 0,0.20898 0.08984,0 0,0.0879 0.208984,0 0,0.20899 0.08984,0 0,0.0898 0.208984,0 0,0.20899 0.08984,0 0,0.0898 0.208984,0 0,0.20898 0.08984,0 0,0.0898 0.208985,0 0,0.20898 0.08789,0 0,0.0899 0.208984,0 0,0.20898 0.08984,0 0,0.0898 0.208985,0 0,0.20899 0.08984,0 0,0.0879 0.208985,0 0,0.20898 0.08984,0 0,0.0899 0.208985,0 0,0.20898 0.08984,0 0,0.0898 0.208984,0 0,0.20898 0.08984,0 0,0.0898 0.208984,0 0,0.20899 0.08789,0 0,0.0898 0.208984,0 0,0.20899 0.08984,0 0,0.0898 0.208984,0 0,0.20898 0.08984,0 0,0.0879 0.208984,0 0,0.20898 0.08984,0 0,0.0898 0.208984,0 0,0.20899 0.08984,0 0,0.0898 0.208985,0 0,0.20899 0.08984,0 0,0.0898 0.208981,0 0,0.20898 0.0879,0 0,0.0899 0.20898,0 0,0.20898 0.0898,0 0,0.0898 0.20898,0 0,0.20898 0.0898,0 0,0.0879 0.20898,0 0,0.20899 0.0898,0 0,0.0898 0.20899,0 0,0.20898 0.0898,0 0,0.0898 0.20899,0 0,0.20898 0.0898,0 0,0.0899 0.20898,0 0,0.20898 0.0879,0 0,0.0898 0.20898,0 0,0.20899 0.0898,0 0,0.0898 0.20899,0 0,0.20899 0.0898,0 0,0.0879 0.20899,0 0,0.20898 0.0898,0 0,0.0898 0.20898,0 0,0.20898 0.0898,0 0,0.0898 0.20898,0 0,0.20899 0.0898,0 0,0.0898 0.20898,0 0,0.20899 0.0879,0 0,0.0898 0.20899,0 0,0.20898 0.0898,0 0,0.0898 0.20898,0 0,0.20898 0.0899,0 0,0.0899 0.20898,0 0,0.20703 0.0898,0 0,0.0898 0.20898,0 0,0.20899 0.0898,0 0,0.0898 0.20899,0 0,0.20898 0.0898,0 0,0.0899 0.20899,0 0,0.20898 0.0898,0 0,0.0898 0.20703,0 0,0.20898 0.0898,0 0,0.0898 0.20899,0 0,0.20899 0.0898,0 0,0.0898 0.20899,0 0,0.20899 0.0898,0 0,0.0879 0.20899,0 0,0.20898 0.0898,0 0,0.0898 0.20898,0 0,0.20899 0.0899,0 0,0.0898 0.20898,0 0,0.20899 0.0898,0 0,0.0898 0.20898,0 0,0.20899 0.0879,0 0,0.0898 0.20898,0 0,0.20898 0.0898,0 0,0.0899 0.20898,0 0,0.20898 0.0898,0 0,0.0879 0.20898,0 0,0.20899 0.0898,0 0,0.0898 0.20899,0 0,0.20898 0.0898,0 0,0.0899 0.20899,0 0,0.20898 0.0898,0 0,0.0898 0.20899,0 0,0.20898 0.0879,0 0,0.0898 0.20898,0 0,0.20899 0.0898,0 0,0.0898 0.20899,0 0,0.20899 0.0898,0 0,0.0879 0.20899,0 0,0.20898 0.0898,0 0,0.0899 0.20898,0 0,0.20898 0.0898,0 0,0.0898 0.20898,0 0,0.20899 0.0898,0 0,0.0898 0.20898,0 0,0.20899 0.0879,0 0,0.0898 0.20899,0 0,0.20898 0.0898,0 0,0.0899 0.20898,0 0,0.20898 0.0898,0 0,0.0879 0.20898,0 0,0.20899 0.0898,0 0,0.0898 0.20898,0 0,0.20899 0.0898,0 0,0.0898 0.20899,0 0,0.20898 0.0898,0 0,0.0898 0.20899,0 0,0.20898 0.0879,0 0,0.0899 0.20898,0 0,0.20898 0.0898,0 0,0.0898 0.20899,0 0,0.20899 0.0898,0 0,0.0879 0.20899,0 0,0.20898 0.0898,0 0,0.0899 0.20899,0 0,0.20898 0.0898,0 0,0.0898 0.20898,0 0,0.20899 0.0898,0 0,0.0898 0.20898,0 0,0.20899 0.0879,0 0,0.0898 0.20899,0 0,0.20899 0.0898,0 0,0.0898 0.20898,0 0,0.20898 0.0898,0 0,0.0879 0.20898,0 0,0.20899 0.0899,0 0,0.0898 0.20898,0 0,0.20899 0.0898,0 0,0.0898 0.20899,0 0,0.20898 0.0898,0 0,0.0898 0.20899,0 0,0.20898 0.0879,0 0,0.0899 0.20898,0 0,0.20898 0.0898,0 0,0.0898 0.20898,0 0,0.20899 0.0898,0 0,0.0879 0.20899,0 0,0.20898 0.0898,0 0,0.0899 0.20899,0 0,0.20898 0.0898,0 0,0.0898 0.20898,0 0,0.20898 0.0898,0 0,0.0898 0.20898,0 0,0.20899 0.0879,0 0,0.0898 0.20899,0 0,0.20899 0.0898,0 0,0.0898 0.20899,0 0,0.20898 0.0898,0 0,0.0879 0.20898,0 0,0.20898 0.0898,0 0,0.0898 0.20898,0 0,0.20899 0.0898,0 0,0.0898 0.20898,0 0,0.20899 0.0898,0 0,0.0898 0.20899,0 0,0.20898 0.0879,0 0,0.0899 0.20898,0 0,0.20898 0.0898,0 0,0.0898 0.20898,0 0,0.20898 0.0898,0 0,0.0879 0.20898,0 0,0.20899 0.0898,0 0,0.0898 0.20899,0 0,0.20898 0.0898,0 0,0.0898 0.20899,0 0,0.20898 0.0898,0 0,0.0899 0.20898,0 0,0.20898 0.0879,0 0,0.0898 0.20898,0 0,0.20899 0.0898,0 0,0.0898 0.20899,0 0,0.20899 0.0898,0 0,0.0879 0.20899,0 0,0.20898 0.0898,0 0,0.0898 0.20898,0 0,0.20898 0.0898,0 0,0.0898 0.20898,0 0,0.20899 0.0898,0 0,0.0898 0.20898,0 0,0.20899 0.0879,0 0,0.0898 0.20899,0 0,0.20898 0.0898,0 0,0.0898 0.20898,0 0,0.20898 0.0899,0 0,0.0899 0.20898,0 0,0.20703 0.0898,0 0,0.0898 0.29882,0 0,0.29883 0.29883,0 0,0.29883 0.29883,0 0,0.29883 0.29687,0 0,0.29882 0.29883,0 0,0.29883 0.29883,0 0,0.29688 0.29883,0 0,0.29882 0.29883,0 0,0.29883 0.29883,0 0,0.29883 0.29687,0 0,0.29883 0.29883,0 0,0.29883 0.29883,0 0,0.29687 0.29882,0 0,0.29883 0.29883,0 0,0.29883 0.29883,0 0,0.29883 0.29688,0 0,0.29882 0.29882,0 0,0.29883 0.29883,0 0,0.29688 0.29883,0 0,0.29883 0.29883,0 0,0.29882 0.29883,0 0,0.29883 0.29687,0 0,0.29883 0.29883,0 0,0.29883 0.29883,0 0,0.29687 0.29883,0 0,0.29883 0.29882,0 0,0.29883 0.29883,0 0,0.29883 0.29688,0 0,0.29883 0.29882,0 0,0.29882 0.29883,0 0,0.29688 0.29883,0 0,0.29883 0.29883,0 0,0.29882 0.29883,0 0,0.29883 0.29687,0 0,0.29883 0.29883,0 0,0.29883 0.29883,0 0,0.29687 0.29883,0 0,0.29883 0.29882,0 0,0.29883 0.29883,0 0,0.29883 0.29688,0 0,0.29883 0.29883,0 0,0.29882 0.29882,0 0,0.29688 0.29883,0 0,0.29883 0.29883,0 0,0.29883 0.29883,0 0,0.29882 0.29687,0 0,0.29883 0.29883,0 0,0.29883 0.29883,0 0,0.29688 0.29883,0 0,0.29882 0.29883,0 0,0.29883 0.29882,0 0,0.29883 0.29688,0 0,0.29883 0.29883,0 0,0.29883 0.29883,0 0,0.29687 0.29882,0 0,0.29883 0.29883,0 0,0.29883 0.29883,0 0,0.29883 0.29688,0 0,0.29882 0.29882,0 0,0.29883 0.29883,0 0,0.29688 18,0 0,-18 18,0 0,-18 -0.29883,0 0,-0.29688 -0.29882,0 0,-0.29883 -0.29688,0 0,-0.29882 -0.29883,0 0,-0.29883 -0.29883,0 0,-0.29883 -0.29882,0 0,-0.29883 -0.29883,0 0,-0.29687 -0.29883,0 0,-0.29883 -0.29688,0 0,-0.29883 -0.29882,0 0,-0.29883 -0.29883,0 0,-0.29883 -0.29883,0 0,-0.29882 -0.29883,0 0,-0.29688 -0.29883,0 0,-0.29883 -0.29687,0 0,-0.29883 -0.29883,0 0,-0.29882 -0.29883,0 0,-0.29883 -0.29883,0 0,-0.29883 -0.29882,0 0,-0.29688 -0.29883,0 0,-0.29882 -0.29688,0 0,-0.29883 -0.29883,0 0,-0.29883 -0.29882,0 0,-0.29883 -0.29883,0 0,-0.29883 -0.29883,0 0,-0.29687 -0.29883,0 0,-0.29883 -0.29687,0 0,-0.29883 -0.29883,0 0,-0.29883 -0.29883,0 0,-0.29882 -0.29883,0 0,-0.29883 -0.29883,0 0,-0.29688 -0.29882,0 0,-0.29882 -0.29688,0 0,-0.29883 -0.29883,0 0,-0.29883 -0.29882,0 0,-0.29883 -0.29883,0 0,-0.29883 -0.29883,0 0,-0.29687 -0.29883,0 0,-0.29883 -0.29687,0 0,-0.29883 -0.29883,0 0,-0.29883 -0.29883,0 0,-0.29882 -0.29883,0 0,-0.29883 -0.29883,0 0,-0.29688 -0.29882,0 0,-0.29883 -0.29688,0 0,-0.29882 -0.29883,0 0,-0.29883 -0.29883,0 0,-0.29883 -0.29882,0 0,-0.29883 -0.29883,0 0,-0.29687 -0.29883,0 0,-0.29883 -0.29687,0 0,-0.29883 -0.29883,0 0,-0.29883 -0.29883,0 0,-0.29883 -0.29883,0 0,-0.29882 -0.29883,0 0,-0.29688 -0.29883,0 0,-0.29883 -0.29687,0 0,-0.29882 -0.29883,0 0,-0.29883 -0.29883,0 0,-0.29883 -0.29882,0 0,-0.29883 -0.0898,0 0,-0.0898 -0.20898,0 0,-0.20703 -0.0899,0 0,-0.0899 -0.20898,0 0,-0.20898 -0.0898,0 0,-0.0898 -0.20899,0 0,-0.20898 -0.0879,0 0,-0.0898 -0.20898,0 0,-0.20899 -0.0899,0 0,-0.0898 -0.20898,0 0,-0.20899 -0.0898,0 0,-0.0898 -0.20898,0 0,-0.20898 -0.0898,0 0,-0.0898 -0.20899,0 0,-0.20898 -0.0898,0 0,-0.0879 -0.20899,0 0,-0.20899 -0.0898,0 0,-0.0898 -0.20898,0 0,-0.20899 -0.0879,0 0,-0.0898 -0.20898,0 0,-0.20898 -0.0898,0 0,-0.0899 -0.20899,0 0,-0.20898 -0.0898,0 0,-0.0898 -0.20899,0 0,-0.20898 -0.0898,0 0,-0.0898 -0.20898,0 0,-0.20899 -0.0899,0 0,-0.0879 -0.20898,0 0,-0.20898 -0.0898,0 0,-0.0898 -0.20898,0 0,-0.20898 -0.0879,0 0,-0.0899 -0.20899,0 0,-0.20898 -0.0898,0 0,-0.0898 -0.20898,0 0,-0.20899 -0.0898,0 0,-0.0898 -0.20898,0 0,-0.20899 -0.0899,0 0,-0.0898 -0.20898,0 0,-0.20898 -0.0898,0 0,-0.0879 -0.20899,0 0,-0.20898 -0.0898,0 0,-0.0898 -0.20899,0 0,-0.20899 -0.0879,0 0,-0.0898 -0.20898,0 0,-0.20899 -0.0898,0 0,-0.0898 -0.20898,0 0,-0.20898 -0.0898,0 0,-0.0898 -0.20899,0 0,-0.20898 -0.0898,0 0,-0.0899 -0.20899,0 0,-0.20898 -0.0898,0 0,-0.0879 -0.20898,0 0,-0.20899 -0.0898,0 0,-0.0898 -0.20898,0 0,-0.20898 -0.0879,0 0,-0.0899 -0.20899,0 0,-0.20898 -0.0898,0 0,-0.0898 -0.20899,0 0,-0.20898 -0.0898,0 0,-0.0898 -0.20898,0 0,-0.20899 -0.0899,0 0,-0.0898 -0.20898,0 0,-0.20899 -0.0898,0 0,-0.0879 -0.20898,0 0,-0.20898 -0.0898,0 0,-0.0898 -0.20899,0 0,-0.20899 -0.0879,0 0,-0.0898 -0.20898,0 0,-0.20899 -0.0898,0 0,-0.0898 -0.20898,0 0,-0.20899 -0.0898,0 0,-0.0898 -0.20899,0 0,-0.20898 -0.0898,0 0,-0.0899 -0.20899,0 0,-0.20898 -0.0898,0 0,-0.0879 -0.20899,0 0,-0.20899 -0.0898,0 0,-0.0898 -0.20898,0 0,-0.20898 -0.0879,0 0,-0.0898 -0.20899,0 0,-0.20898 -0.0898,0 0,-0.0898 -0.20899,0 0,-0.20898 -0.0898,0 0,-0.0898 -0.20898,0 0,-0.20899 -0.0899,0 0,-0.0898 -0.20898,0 0,-0.20899 -0.0898,0 0,-0.0879 -0.20898,0 0,-0.20898 -0.0898,0 0,-0.0898 -0.20899,0 0,-0.20898 -0.0879,0 0,-0.0898 -0.20898,0 0,-0.20899 -0.0898,0 0,-0.0898 -0.20898,0 0,-0.20899 -0.0899,0 0,-0.0898 -0.20898,0 0,-0.20898 -0.0898,0 0,-0.0898 -0.20899,0 0,-0.20898 -0.0898,0 0,-0.0879 -0.20899,0 0,-0.20899 -0.0898,0 0,-0.0898 -0.20898,0 0,-0.20899 -0.0879,0 0,-0.0898 -0.20899,0 0,-0.20898 -0.0898,0 0,-0.0898 -0.20899,0 0,-0.20898 -0.0898,0 0,-0.0898 -0.20899,0 0,-0.20898 -0.0898,0 0,-0.0898 -0.20898,0 0,-0.20899 -0.0898,0 0,-0.0879 -0.20898,0 0,-0.20898 -0.0899,0 0,-0.0899 -0.20898,0 0,-0.20898 -0.0879,0 0,-0.0898 -0.20898,0 0,-0.20899 -0.0898,0 0,-0.0898 -0.20898,0 0,-0.20899 -0.0899,0 0,-0.0898 -0.20898,0 0,-0.20899 -0.0898,0 0,-0.0898 -0.20899,0 0,-0.20898 -0.0898,0 0,-0.0879 -0.20899,0 0,-0.20899 -0.0898,0 0,-0.0898 -0.20899,0 0,-0.20899 -0.0898,0 0,-0.0898 -0.20703,0 0,-0.20898 -0.0898,0 0,-0.0898 -0.20899,0 0,-0.20898 -0.0898,0 0,-0.0899 -0.20899,0 0,-0.20898 -0.0898,0 0,-0.0898 -0.20898,0 0,-0.20899 -0.0898,0 0,-0.0898 -0.20898,0 0,-0.20703 -0.0899,0 0,-0.0898 -0.20898,0 0,-0.20898 -0.0898,0 0,-0.0898 -0.20899,0 0,-0.20898 -0.0879,0 0,-0.0898 -0.20898,0 0,-0.20899 -0.0899,0 0,-0.0898 -0.20898,0 0,-0.20899 -0.0898,0 0,-0.0898 -0.20898,0 0,-0.20898 -0.0898,0 0,-0.0898 -0.20899,0 0,-0.20898 -0.0898,0 0,-0.0879 -0.20899,0 0,-0.20899 -0.0898,0 0,-0.0898 -0.20898,0 0,-0.20899 -0.0879,0 0,-0.0898 -0.20898,0 0,-0.20898 -0.0898,0 0,-0.0898 -0.20899,0 0,-0.20898 -0.0898,0 0,-0.0898 -0.20899,0 0,-0.20898 -0.0898,0 0,-0.0898 -0.20898,0 0,-0.20899 -0.0899,0 0,-0.0879 -0.20898,0 0,-0.20898 -0.0898,0 0,-0.0898 -0.20898,0 0,-0.20898 -0.0879,0 0,-0.0898 -0.20899,0 0,-0.20898 -0.0898,0 0,-0.0898 -0.20898,0 0,-0.20899 -0.0898,0 0,-0.0898 -0.20898,0 0,-0.20899 -0.0899,0 0,-0.0898 -0.20898,0 0,-0.20898 -0.0898,0 0,-0.0879 -0.20899,0 0,-0.20898 -0.0898,0 0,-0.0898 -0.20899,0 0,-0.20899 -0.0879,0 0,-0.0898 -0.20898,0 0,-0.20899 -0.0898,0 0,-0.0898 -0.20898,0 0,-0.20898 -0.0898,0 0,-0.0898 -0.20899,0 0,-0.20898 -0.0898,0 0,-0.0898 -0.20899,0 0,-0.20898 -0.0898,0 0,-0.0879 -0.20898,0 0,-0.20899 -0.0898,0 0,-0.0898 -0.20898,0 0,-0.20898 -0.0879,0 0,-0.0899 -0.20899,0 0,-0.20898 -0.0898,0 0,-0.0898 -0.20899,0 0,-0.20898 -0.0898,0 0,-0.0898 -0.20898,0 0,-0.20899 -0.0899,0 0,-0.0898 -0.20898,0 0,-0.20899 -0.0898,0 0,-0.0879 -0.20898,0 0,-0.20898 -0.0898,0 0,-0.0898 -0.20899,0 0,-0.20899 -0.0879,0 0,-0.0898 -0.20898,0 0,-0.20899 -0.0898,0 0,-0.0898 -0.20898,0 0,-0.20899 -0.0898,0 0,-0.0898 -0.20899,0 0,-0.20898 -0.0898,0 0,-0.0899 -0.20899,0 0,-0.20898 -0.0898,0 0,-0.0879 -0.20899,0 0,-0.20899 -0.0898,0 0,-0.0898 -0.20898,0 0,-0.20898 -0.0879,0 0,-0.0898 -0.20899,0 0,-0.20898 -0.0898,0 0,-0.0898 -0.20899,0 0,-0.20898 -0.0898,0 0,-0.0898 -0.20898,0 0,-0.20899 -0.0898,0 0,-0.0898 -0.20898,0 0,-0.20899 -0.0898,0 0,-0.0879 -0.20898,0 0,-0.20898 -0.0898,0 0,-0.0898 -0.20899,0 0,-0.20898 -0.0879,0 0,-0.0898 -0.20898,0 0,-0.20899 -0.0898,0 0,-0.0898 -0.20898,0 0,-0.20899 -0.0898,0 0,-0.0898 -0.20898,0 0,-0.20898 -0.0898,0 0,-0.0898 -0.20899,0 0,-0.20898 -0.0898,0 0,-0.0879 -0.20899,0 0,-0.20899 -0.0898,0 0,-0.0898 -0.20898,0 0,-0.20899 -0.0879,0 0,-0.0898 -0.20899,0 0,-0.20898 -0.0898,0 0,-0.0898 -0.20899,0 0,-0.20898 -0.0898,0 0,-0.0898 -0.20899,0 0,-0.20898 -0.0898,0 0,-0.0898 -0.20898,0 0,-0.20899 -0.0898,0 0,-0.0879 -0.20898,0 0,-0.20898 -0.0898,0 0,-0.0899 -0.20898,0 0,-0.20898 -0.0879,0 0,-0.0898 -0.20898,0 0,-0.20899 -0.0898,0 0,-0.0898 -0.20898,0 0,-0.20899 -0.0899,0 0,-0.0898 -0.20898,0 0,-0.20899 -0.0898,0 0,-0.0898 -0.20899,0 0,-0.20898 -0.0898,0 0,-0.0879 -0.20899,0 0,-0.208989 -0.0898,0 0,-0.08984 -0.20899,0 0,-0.208985 -0.0898,0 0,-0.08984 -0.20703,0 0,-0.208984 -0.0898,0 0,-0.08984 -0.20899,0 0,-0.208984 -0.0898,0 0,-0.08984 -0.20899,0 0,-0.208984 -0.0898,0 0,-0.08984 -0.20898,0 0,-0.208984 -0.0898,0 0,-0.08984 -0.20898,0 0,-0.207031 -0.0899,0 0,-0.08984 -0.20898,0 0,-0.208984 -0.0898,0 0,-0.08984 -0.20899,0 0,-0.208985 -0.0879,0 0,-0.08984 -0.20898,0 0,-0.208985 -0.0898,0 0,-0.08984 -0.20898,0 0,-0.208985 -0.0898,0 0,-0.08984 -0.20898,0 0,-0.208984 -0.0898,0 0,-0.08984 -0.20899,0 0,-0.208984 -0.0898,0 0,-0.08789 -0.29883,0 0,-0.298828 -0.29688,0 0,-0.298828 -0.29882,0 0,-0.298828 -0.29883,0 0,-0.298828 -0.29883,0 0,-0.298828 -0.29883,0 0,-0.296875 -0.29883,0 0,-0.298829 -0.29687,0 0,-0.298828 -0.29883,0 0,-0.298828 -0.29883,0 0,-0.298828 -0.29883,0 0,-0.298828 -0.29882,0 0,-0.296875 -0.29883,0 0,-0.298828 -0.29688,0 0,-0.298828 -0.29883,0 0,-0.298828 -0.29882,0 0,-0.298829 -0.29883,0 0,-0.298828 -0.29883,0 0,-0.296875 -0.29883,0 0,-0.298828 -0.29687,0 0,-0.298828 -0.29883,0 0,-0.298828 -0.29883,0 0,-0.298828 -0.29883,0 0,-0.298828 -0.29883,0 0,-0.296875 -0.29882,0 0,-0.298828 -0.29688,0 0,-0.298828 -0.29883,0 0,-0.298829 -0.29882,0 0,-0.298828 -0.29883,0 0,-0.298828 -0.29883,0 0,-0.296875 -0.29883,0 0,-0.298828 -0.29687,0 0,-0.298828 -0.29883,0 0,-0.298828 -0.29883,0 0,-0.298828 -0.29883,0 0,-0.298828 -0.29883,0 0,-0.296876 -0.29882,0 0,-0.298828 -0.29688,0 0,-0.298828 -0.29883,0 0,-0.298828 -0.29883,0 0,-0.298828 -0.29882,0 0,-0.298828 -0.29883,0 0,-0.296875 -0.29883,0 0,-0.298828 -0.29687,0 0,-0.298828 -0.29883,0 0,-0.298829 -0.29883,0 0,-0.298828 -0.29883,0 0,-0.298828 -0.29883,0 0,-0.296875 -0.29883,0 0,-0.298828 -0.29687,0 0,-0.298828 -0.29883,0 0,-0.298828 -0.29883,0 0,-0.298828 -0.29882,0 0,-0.298828 -0.29883,0 0,-0.296875 -0.29883,0 0,-0.298828 -0.29883,0 0,-0.298829 -0.29687,0 0,-0.298828 -0.29883,0 0,-0.298828 -0.29883,0 0,-0.298828 -0.29883,0 0,-0.298828 -18.000004,0 z"
     id="path7496"
     clip-path="url(#clipPath8321)"
     inkscape:connector-curvature="0"
     transform="translate(36.480179,22.751)" /><path
     transform="matrix(0.75,0,0,0.75,59.360134,49.063251)"
     clip-path="url(#clipPath8325)"
     style="opacity:0.22000002;fill:#000000;fill-opacity:1;fill-rule:evenodd;stroke:none;stroke-width:1;stroke-miterlimit:4;stroke-dasharray:none;stroke-opacity:1"
     d="m 79.519825,69.248999 0,24.000003 -24.000002,0 0,23.999998 24.000002,0 0,24 23.999995,0 0,-24 24,0 0,-23.999998 -24,0 0,-24.000003 -23.999995,0 z"
     id="path8337"
     inkscape:connector-curvature="0" /><path
     inkscape:connector-curvature="0"
     id="rect4756"
     d="m 79.519825,69.248999 0,24.000003 -24.000002,0 0,23.999998 24.000002,0 0,24 23.999995,0 0,-24 24,0 0,-23.999998 -24,0 0,-24.000003 -23.999995,0 z"
     style="opacity:1;fill:#ce1126;fill-opacity:1;fill-rule:evenodd;stroke:none;stroke-width:1;stroke-miterlimit:4;stroke-dasharray:none;stroke-opacity:1;filter:url(#filter8495)"
     clip-path="url(#clipPath8325)"
     transform="matrix(0.75,0,0,0.75,59.360134,49.063251)" /></svg>